<?xml version="1.0" standalone="no"?>
<!DOCTYPE svg PUBLIC "-//W3C//DTD SVG 20010904//EN"
 "http://www.w3.org/TR/2001/REC-SVG-20010904/DTD/svg10.dtd">
<svg version="1.0" xmlns="http://www.w3.org/2000/svg"
 width="318.000000pt" height="318.000000pt" viewBox="0 0 318.000000 318.000000"
 preserveAspectRatio="xMidYMid meet">
<metadata>
Created by potrace 1.14, written by Peter Selinger 2001-2017
</metadata>
<g transform="translate(0.000000,318.000000) scale(0.100000,-0.100000)"
fill="#000000" stroke="none">
<path d="M1224 2762 c-187 -88 -192 -412 -9 -581 62 -57 117 -81 187 -81 47 0
58 -3 63 -19 11 -34 82 -89 136 -105 271 -81 586 210 477 440 -57 122 -227
165 -390 99 -54 -22 -59 -23 -65 -7 -33 101 -120 209 -198 247 -58 27 -150 30
-201 7z m209 -90 c52 -37 100 -105 122 -172 l17 -51 -46 -49 -45 -48 -22 35
c-12 19 -45 53 -73 75 -28 22 -60 54 -70 70 -23 36 -36 101 -29 146 l6 34 49
-4 c33 -4 62 -15 91 -36z m-194 -137 c19 -45 58 -93 102 -122 61 -40 92 -102
93 -182 1 -64 0 -66 -26 -69 -14 -2 -50 7 -78 19 -130 56 -218 249 -177 390 9
31 27 69 39 85 l23 29 6 -60 c4 -33 12 -73 18 -90z m716 -80 l30 -19 -44 -8
c-86 -15 -158 -73 -206 -169 -32 -62 -81 -98 -157 -116 -74 -17 -81 -11 -74
63 9 108 86 197 215 251 72 30 190 29 236 -2z m75 -142 c0 -101 -68 -191 -188
-250 -69 -34 -179 -43 -235 -19 -38 15 -42 36 -8 36 64 0 156 74 203 162 43
81 113 126 196 128 l32 0 0 -57z"/>
<path d="M1770 1868 c-70 -48 -125 -201 -137 -378 -6 -99 -12 -114 -64 -150
l-25 -19 0 64 c0 96 -49 154 -118 141 -57 -11 -84 -42 -145 -170 -32 -66 -67
-132 -79 -146 l-21 -25 -1 25 c0 14 7 60 15 103 23 122 18 185 -19 209 -35 24
-102 -15 -126 -72 -15 -36 -26 -32 -34 15 -7 37 -38 65 -71 65 -26 0 -69 -43
-89 -90 l-16 -35 6 52 c6 45 4 52 -15 63 -57 30 -86 -27 -79 -154 2 -44 11
-94 19 -111 15 -31 53 -56 74 -49 7 3 17 43 23 93 10 80 36 161 53 161 11 0
19 -58 19 -141 0 -57 4 -82 16 -93 34 -35 62 -9 83 78 13 54 54 141 72 152 9
5 10 -9 5 -57 -19 -183 -19 -218 -2 -244 26 -39 66 -34 110 15 20 23 44 56 53
75 20 42 26 43 41 9 18 -37 76 -59 123 -45 21 6 46 22 56 35 10 13 28 26 40
30 12 4 37 18 57 31 19 13 37 21 39 17 3 -4 8 -28 11 -54 13 -85 72 -85 94 0
l9 37 36 -77 c57 -123 105 -128 176 -21 l34 51 22 -26 c35 -41 88 -36 131 11
34 37 35 37 43 14 22 -58 83 -67 133 -21 46 44 119 160 112 179 -10 26 -26 13
-79 -66 -27 -40 -58 -75 -67 -77 -26 -5 -33 58 -18 151 9 56 10 81 2 89 -17
17 -140 19 -171 3 -46 -24 -82 -72 -106 -140 -27 -77 -84 -175 -101 -175 -7 0
-24 29 -38 65 l-26 65 35 46 c53 69 48 154 -10 154 -11 0 -30 -7 -42 -15 -19
-13 -15 -1 21 77 72 152 83 248 33 283 -30 21 -58 19 -97 -7z m70 -147 c-14
-54 -85 -205 -106 -222 -50 -41 38 261 92 316 19 19 19 18 22 -15 2 -18 -2
-54 -8 -79z m337 -300 c-9 -80 -67 -177 -91 -154 -12 12 -5 99 10 128 21 40
54 75 72 75 12 0 14 -10 9 -49z m-683 23 c12 -33 6 -112 -9 -118 -8 -3 -15
-17 -15 -30 0 -34 -46 -48 -67 -21 -29 41 -11 148 31 177 19 13 54 9 60 -8z
m310 -40 c-10 -15 -20 -21 -22 -15 -2 6 4 24 14 39 10 14 19 21 21 15 3 -7 -4
-24 -13 -39z m-67 6 c-7 -19 -15 -26 -21 -20 -6 6 -3 17 9 30 24 27 25 25 12
-10z"/>
<path d="M1076 958 c-9 -12 -16 -41 -16 -63 0 -50 23 -85 55 -85 33 0 55 36
55 91 0 72 -59 108 -94 57z m64 -50 c0 -75 -11 -98 -34 -79 -11 9 -16 31 -16
71 0 61 4 70 32 70 16 0 18 -9 18 -62z"/>
<path d="M1205 895 c0 -70 3 -85 15 -85 12 0 15 9 12 40 -4 41 4 50 26 28 9
-9 12 -5 11 18 0 16 -3 23 -6 17 -11 -28 -33 -13 -33 22 0 28 4 35 20 35 10 0
24 -8 29 -17 9 -16 10 -16 11 5 0 19 -5 22 -42 22 l-43 0 0 -85z"/>
<path d="M1325 895 c0 -70 3 -85 15 -85 12 0 15 9 12 40 -4 41 4 50 26 28 9
-9 12 -5 11 18 0 16 -3 23 -6 17 -11 -28 -33 -13 -33 22 0 28 4 35 20 35 10 0
24 -8 29 -17 9 -16 10 -16 11 5 0 19 -5 22 -42 22 l-43 0 0 -85z"/>
<path d="M1445 895 l0 -85 43 0 c37 0 42 3 41 23 -1 16 -2 18 -6 5 -2 -10 -13
-18 -24 -18 -15 0 -19 7 -19 35 0 34 13 47 23 23 3 -7 5 1 5 17 0 17 -2 24 -5
18 -10 -25 -23 -12 -23 22 0 39 21 48 39 18 9 -16 10 -16 11 5 0 19 -5 22 -42
22 l-43 0 0 -85z"/>
<path d="M1575 895 l0 -85 43 0 c37 0 42 3 41 23 -1 16 -2 18 -6 5 -2 -10 -13
-18 -24 -18 -15 0 -19 7 -19 35 0 34 13 47 23 23 3 -7 5 1 5 17 0 17 -2 24 -5
18 -10 -25 -23 -12 -23 22 0 39 21 48 39 18 9 -16 10 -16 11 5 0 19 -5 22 -42
22 l-43 0 0 -85z"/>
<path d="M1750 961 c-16 -30 -13 -39 26 -77 19 -20 34 -43 32 -52 -5 -26 -41
-20 -55 8 l-13 25 0 -27 c0 -22 6 -28 32 -33 24 -6 35 -3 45 11 21 28 16 48
-22 84 -19 19 -35 40 -35 46 0 25 23 27 42 4 17 -21 18 -21 18 -2 0 34 -53 44
-70 13z"/>
<path d="M1865 895 c0 -79 1 -85 20 -85 18 0 20 5 17 35 -4 31 -1 35 18 35 19
0 22 -4 18 -35 -3 -27 0 -35 12 -35 12 0 15 15 15 85 0 69 -3 85 -15 85 -12 0
-14 -10 -12 -45 4 -41 2 -45 -18 -45 -20 0 -22 4 -18 45 3 40 1 45 -17 45 -18
0 -20 -7 -20 -85z"/>
<path d="M2026 964 c-23 -23 -22 -116 2 -137 29 -27 59 -21 78 15 18 34 15 98
-6 123 -16 20 -55 19 -74 -1z m58 -10 c19 -49 -5 -147 -31 -131 -16 10 -25 72
-17 112 7 37 36 49 48 19z"/>
<path d="M2155 895 c0 -74 2 -85 18 -85 13 0 17 8 17 34 0 28 4 35 25 40 28 7
44 50 28 75 -6 9 -27 17 -49 19 l-39 3 0 -86z m60 35 c0 -18 -6 -35 -12 -37
-9 -3 -13 8 -13 37 0 29 4 40 13 38 6 -3 12 -20 12 -38z"/>
<path d="M947 952 c-24 -26 -23 -104 1 -125 25 -23 72 -23 72 1 0 13 -2 14 -9
4 -15 -25 -45 -9 -52 28 -15 71 17 127 47 85 13 -18 14 -18 14 3 0 18 -6 22
-28 22 -16 0 -36 -8 -45 -18z"/>
</g>
</svg>
